Coordinates
version=1
nRows=17
nColumns=40
inDegrees=yes

Units are S.I. units (second, meters, Newtons, ...)
If the header above contains a line with 'inDegrees', this indicates whether rotational values are in degrees (yes) or radians (no).

endheader
time	pelvis_tilt	pelvis_list	pelvis_rotation	pelvis_tx	pelvis_ty	pelvis_tz	hip_flexion_r	hip_adduction_r	hip_rotation_r	knee_angle_r	knee_angle_r_beta	ankle_angle_r	subtalar_angle_r	mtp_angle_r	hip_flexion_l	hip_adduction_l	hip_rotation_l	knee_angle_l	knee_angle_l_beta	ankle_angle_l	subtalar_angle_l	mtp_angle_l	lumbar_extension	lumbar_bending	lumbar_rotation	arm_flex_r	arm_add_r	arm_rot_r	elbow_flex_r	pro_sup_r	wrist_flex_r	wrist_dev_r	arm_flex_l	arm_add_l	arm_rot_l	elbow_flex_l	pro_sup_l	wrist_flex_l	wrist_dev_l
      4.25000000	    -28.84943170	     -1.60803482	     -0.43675038	     -0.33336551	      0.75059358	     -0.97585017	     29.23952874	     -7.45344294	      6.84761801	     90.42115907	      1.57814694	    -19.74548290	      0.00000000	      0.00000000	     78.27224684	     -3.43188262	     -3.57776058	     82.71284380	      1.44361146	     20.03708801	      0.00000000	      0.00000000	    -13.00202322	    -13.23350492	      7.16166220	     73.88846732	     -4.98503336	     21.91893368	     78.47506919	     81.24161311	      0.00000000	      0.00000000	     78.21360064	    -13.01649783	     31.35331017	     75.90238111	     75.18044971	      0.00000000	      0.00000000
      4.25500000	    -28.83177880	     -1.63635206	     -0.36392707	     -0.33306824	      0.75191627	     -0.97596355	     29.20426143	     -7.47198168	      6.74002856	     90.38328447	      1.57748590	    -19.76052474	      0.00000000	      0.00000000	     78.07708699	     -3.39214053	     -3.57373816	     82.42878684	      1.43865373	     19.90781189	      0.00000000	      0.00000000	    -12.89407114	    -13.20157081	      7.08880447	     73.85579391	     -5.00325864	     21.97433467	     78.48816221	     81.24291531	      0.00000000	      0.00000000	     78.15181173	    -13.00757716	     31.37397211	     75.91160249	     75.19096793	      0.00000000	      0.00000000
      4.26000000	    -28.79076285	     -1.65858802	     -0.35483169	     -0.33292519	      0.75305689	     -0.97604575	     29.18589519	     -7.48897967	      6.74364428	     90.39366283	      1.57766704	    -19.76296023	      0.00000000	      0.00000000	     78.00734017	     -3.39269247	     -3.55711568	     82.40835735	      1.43829717	     19.88483114	      0.00000000	      0.00000000	    -12.78378458	    -13.18405392	      7.06026823	     73.86688330	     -5.01429956	     21.97457276	     78.49456665	     81.24289669	      0.00000000	      0.00000000	     78.16577831	    -13.00128144	     31.37062766	     75.92063763	     75.19179365	      0.00000000	      0.00000000
      4.26500000	    -28.72288613	     -1.68981087	     -0.39496356	     -0.33252693	      0.75460207	     -0.97582421	     29.12613899	     -7.44513707	      6.69161631	     90.36902374	      1.57723701	    -19.75999099	      0.00000000	      0.00000000	     77.69026361	     -3.45444784	     -3.50775855	     81.98717378	      1.43094613	     19.64525635	      0.00000000	      0.00000000	    -12.68712502	    -13.18459806	      7.09250834	     73.75384436	     -5.03294137	     22.07066508	     78.48503581	     81.24492268	      0.00000000	      0.00000000	     78.04654543	    -13.03480521	     31.38280425	     75.91245456	     75.19999899	      0.00000000	      0.00000000
      4.27000000	    -28.75271005	     -1.81274093	     -0.27335057	     -0.33241602	      0.75577489	     -0.97587599	     29.15344654	     -7.36922624	      6.50701617	     90.36534360	      1.57717278	    -19.78949760	      0.00000000	      0.00000000	     77.54421684	     -3.40402920	     -3.43665579	     81.66808437	      1.42537697	     19.51180483	      0.00000000	      0.00000000	    -12.53677348	    -13.05959745	      7.02734618	     73.75436309	     -5.14782123	     22.15507778	     78.57335652	     81.26258014	      0.00000000	      0.00000000	     78.04111745	    -12.98903795	     31.46227843	     75.94086645	     74.32904637	      0.00000000	      0.00000000
      4.27500000	    -28.65558362	     -1.81486257	     -0.31139591	     -0.33206422	      0.75732959	     -0.97583439	     29.06328639	     -7.35778170	      6.51708231	     90.35199903	      1.57693987	    -19.78248748	      0.00000000	      0.00000000	     77.26041786	     -3.47542403	     -3.50366558	     81.39950357	      1.42068935	     19.38209921	      0.00000000	      0.00000000	    -12.46737756	    -13.07946728	      7.04854038	     73.70495088	     -5.14769559	     22.18951441	     78.55432847	     81.25936892	      0.00000000	      0.00000000	     77.99256630	    -13.01900337	     31.47874171	     75.94941525	     74.35498491	      0.00000000	      0.00000000
      4.28000000	    -28.58485763	     -1.82256734	     -0.36396089	     -0.33152885	      0.75863957	     -0.97568649	     28.99634128	     -7.38901868	      6.52480165	     90.31477698	      1.57629022	    -19.78325469	      0.00000000	      0.00000000	     77.01119981	     -3.57939175	     -3.54413294	     81.20640949	      1.41731922	     19.30862387	      0.00000000	      0.00000000	    -12.34576208	    -13.09454302	      7.09002751	     73.63000201	     -5.16023493	     22.22133167	     78.53874966	     81.25688018	      0.00000000	      0.00000000	     77.89503119	    -13.03666043	     31.47949894	     75.96303958	     74.37198598	      0.00000000	      0.00000000
      4.28500000	    -28.48797076	     -1.77956206	     -0.28058799	     -0.33137448	      0.76034312	     -0.97589934	     28.91898311	     -7.44896043	      6.53191947	     90.30723083	      1.57615852	    -19.82370039	      0.00000000	      0.00000000	     76.67057596	     -3.46167747	     -3.60055725	     80.79923147	      1.41021262	     19.18473740	      0.00000000	      0.00000000	    -12.37557460	    -13.13373705	      6.98016799	     73.64722874	     -5.16482636	     22.21460492	     78.53350582	     81.24781623	      0.00000000	      0.00000000	     77.86851992	    -12.98228451	     31.41225974	     75.99553411	     74.40604195	      0.00000000	      0.00000000
      4.29000000	    -28.41097419	     -1.77858678	     -0.32522958	     -0.33087317	      0.76161477	     -0.97581668	     28.85433526	     -7.49178293	      6.49381213	     90.32885886	      1.57653600	    -19.79942591	      0.00000000	      0.00000000	     76.42801326	     -3.55042501	     -3.67340505	     80.61673889	      1.40702753	     19.12955954	      0.00000000	      0.00000000	    -12.23413692	    -13.15333273	      7.01649031	     73.54085114	     -5.16763223	     22.22315880	     78.52099579	     81.24390394	      0.00000000	      0.00000000	     77.77662285	    -12.98640188	     31.38468544	     75.97934899	     74.42327621	      0.00000000	      0.00000000
      4.29500000	    -28.32783458	     -1.71286376	     -0.15460311	     -0.33066246	      0.76320930	     -0.97631526	     28.77568718	     -7.73525772	      6.36259477	     90.30619611	      1.57614046	    -19.81865484	      0.00000000	      0.00000000	     76.11388142	     -3.35712899	     -3.76755891	     80.22788169	      1.40024069	     19.00638979	      0.00000000	      0.00000000	    -12.23108100	    -13.18290509	      6.83066015	     73.50943189	     -5.17965296	     22.20780391	     78.56177964	     81.23162474	      0.00000000	      0.00000000	     77.72901045	    -12.94745107	     31.32679808	     75.99599028	     74.47208745	      0.00000000	      0.00000000
      4.30000000	    -28.26464283	     -1.76161053	     -0.21434919	     -0.33022700	      0.76453642	     -0.97623654	     28.73765780	     -7.67080359	      6.38406633	     90.31253826	      1.57625115	    -19.79122706	      0.00000000	      0.00000000	     75.91613665	     -3.47012883	     -3.76050452	     80.03982805	      1.39695853	     18.88966732	      0.00000000	      0.00000000	    -12.09799026	    -13.14334500	      6.88111457	     73.44282125	     -5.17218206	     22.22577868	     78.56940925	     81.22946287	      0.00000000	      0.00000000	     77.64543828	    -12.96872664	     31.35518065	     75.99498279	     74.49629662	      0.00000000	      0.00000000
      4.30500000	    -28.25441850	     -1.86974500	     -0.19540850	     -0.33010239	      0.76585296	     -0.97621791	     28.76672415	     -7.61401315	      6.27938013	     90.37164821	      1.57728281	    -19.79719127	      0.00000000	      0.00000000	     75.77585836	     -3.55628209	     -3.75711977	     79.81173964	      1.39297764	     18.77661955	      0.00000000	      0.00000000	    -11.94532380	    -13.02675912	      6.87713985	     73.40044860	     -5.21486834	     22.23048956	     78.56858318	     81.22776340	      0.00000000	      0.00000000	     77.58627998	    -12.96758170	     31.37443793	     76.00508566	     74.51173901	      0.00000000	      0.00000000
      4.31000000	    -28.27199710	     -1.96160652	     -0.18024519	     -0.32982970	      0.76722977	     -0.97625990	     28.77759752	     -7.54175477	      6.25217367	     90.30659329	      1.57614739	    -19.80351576	      0.00000000	      0.00000000	     75.58328691	     -3.61729319	     -3.77593116	     79.49582648	      1.38746391	     18.68015662	      0.00000000	      0.00000000	    -11.74891082	    -12.92408460	      6.89573172	     73.32053285	     -5.25127627	     22.26067886	     78.56740514	     81.22566132	      0.00000000	      0.00000000	     77.49715044	    -12.94998360	     31.41661187	     76.03072619	     74.53535413	      0.00000000	      0.00000000
      4.31500000	    -28.21247741	     -2.02473298	     -0.17807491	     -0.32950729	      0.76864792	     -0.97629531	     28.74047868	     -7.49427434	      6.24186551	     90.31426788	      1.57628134	    -19.81843612	      0.00000000	      0.00000000	     75.34818870	     -3.65897945	     -3.75879275	     79.23824676	      1.38296830	     18.58176608	      0.00000000	      0.00000000	    -11.64125164	    -12.85330351	      6.91905859	     73.27200235	     -5.25997773	     22.25697324	     78.57891410	     81.22313616	      0.00000000	      0.00000000	     77.45031410	    -12.93132943	     31.41301472	     76.03768692	     74.55311155	      0.00000000	      0.00000000
      4.32000000	    -28.16541455	     -2.11429862	     -0.11749032	     -0.32920696	      0.77010941	     -0.97648554	     28.69629723	     -7.46589415	      6.15868850	     90.31023796	      1.57621100	    -19.84357496	      0.00000000	      0.00000000	     75.13440269	     -3.65836825	     -3.74148515	     78.96136363	      1.37813578	     18.49091355	      0.00000000	      0.00000000	    -11.52127903	    -12.75000488	      6.89280348	     73.21047549	     -5.28729678	     22.23959841	     78.57965745	     81.22008661	      0.00000000	      0.00000000	     77.35715669	    -12.87664314	     31.45123315	     76.06067981	     74.57093276	      0.00000000	      0.00000000
      4.32500000	    -28.06576200	     -2.15137997	     -0.11097669	     -0.32877650	      0.77156694	     -0.97658099	     28.61626485	     -7.46786241	      6.13085308	     90.31507272	      1.57629538	    -19.85271266	      0.00000000	      0.00000000	     74.85639408	     -3.66629030	     -3.71340993	     78.72124077	      1.37394484	     18.39059295	      0.00000000	      0.00000000	    -11.44208259	    -12.69283574	      6.90055333	     73.13598188	     -5.30997383	     22.24773086	     78.57904715	     81.21798387	      0.00000000	      0.00000000	     77.25995328	    -12.87443631	     31.46716996	     76.05838134	     74.58831720	      0.00000000	      0.00000000
      4.33000000	    -28.01499579	     -2.24184363	     -0.08235909	     -0.32859042	      0.77305938	     -0.97658257	     28.59668639	     -7.39613956	      6.07516798	     90.33323314	      1.57661234	    -19.82297952	      0.00000000	      0.00000000	     74.62509272	     -3.72614904	     -3.71733001	     78.41003977	      1.36851336	     18.28776701	      0.00000000	      0.00000000	    -11.34685977	    -12.59810882	      6.87345937	     73.11768760	     -5.33091711	     22.24401900	     78.60698741	     81.21617730	      0.00000000	      0.00000000	     77.25397210	    -12.84791539	     31.45188042	     76.07145532	     74.59854055	      0.00000000	      0.00000000
